HIERARCHY
ROOT hip
{
  OFFSET 0 90.174 2.4664
  CHANNELS 6 Xposition Yposition Zposition Zrotation Xrotation Yrotation
  JOINT abdomen
  {
    OFFSET 0 -1.186 -1.5018
    CHANNELS 6 Xposition Yposition Zposition Zrotation Xrotation Yrotation
    JOINT abdomen2
    {
      OFFSET 0 9.964 0.2134
      CHANNELS 6 Xposition Yposition Zposition Zrotation Xrotation Yrotation
      JOINT chest
      {
        OFFSET 0 13.134 -3.2573
        CHANNELS 6 Xposition Yposition Zposition Zrotation Xrotation Yrotation
        JOINT neck
        {
          OFFSET 0 20.686 -1.6905
          CHANNELS 6 Xposition Yposition Zposition Zrotation Xrotation Yrotation
          JOINT head
          {
            OFFSET 0 7.238 -0.1237
            CHANNELS 6 Xposition Yposition Zposition Zrotation Xrotation Yrotation
            End Site
            {
              OFFSET 0 0 0
            }
          }
        }
        JOINT lCollar
        {
          OFFSET 1.7069 20.075 5.0056
          CHANNELS 6 Xposition Yposition Zposition Zrotation Xrotation Yrotation
          JOINT lShldr
          {
            OFFSET 13.6458 -0.047 -4.849
            CHANNELS 6 Xposition Yposition Zposition Zrotation Xrotation Yrotation
            JOINT lForeArm
            {
              OFFSET 28.3255 -0.9759 2.2888
              CHANNELS 6 Xposition Yposition Zposition Zrotation Xrotation Yrotation
              JOINT lHand
              {
                OFFSET 22.1583 -0.53 10.8316
                CHANNELS 6 Xposition Yposition Zposition Zrotation Xrotation Yrotation
                JOINT lThumb1
                {
                  OFFSET 0.786 0.112 2.5817
                  CHANNELS 6 Xposition Yposition Zposition Zrotation Xrotation Yrotation
                  JOINT lThumb2
                  {
                    OFFSET 0.3601 -0.878 4.2331
                    CHANNELS 6 Xposition Yposition Zposition Zrotation Xrotation Yrotation
                    JOINT lThumb2_End
                    {
                      OFFSET 1.8127 -1.216 2.2227
                      CHANNELS 6 Xposition Yposition Zposition Zrotation Xrotation Yrotation
                      End Site
                      {
                        OFFSET 0.0181 -0.0122 0.0222
                      }
                    }
                  }
                }
                JOINT lCarpal1
                {
                  OFFSET 0.9571 1.114 1.7695
                  CHANNELS 6 Xposition Yposition Zposition Zrotation Xrotation Yrotation
                  JOINT lIndex1
                  {
                    OFFSET 4.1246 0.487 4.1451
                    CHANNELS 6 Xposition Yposition Zposition Zrotation Xrotation Yrotation
                    JOINT lIndex2
                    {
                      OFFSET 3.4052 -1.454 2.7682
                      CHANNELS 6 Xposition Yposition Zposition Zrotation Xrotation Yrotation
                      JOINT lIndex2_End
                      {
                        OFFSET 1.4531 -1.795 1.2713
                        CHANNELS 6 Xposition Yposition Zposition Zrotation Xrotation Yrotation
                        End Site
                        {
                          OFFSET 0.0145 -0.0179 0.0127
                        }
                      }
                    }
                  }
                  JOINT lMid1
                  {
                    OFFSET 5.6954 0.21 2.1184
                    CHANNELS 6 Xposition Yposition Zposition Zrotation Xrotation Yrotation
                    JOINT lMid2
                    {
                      OFFSET 3.9766 -1.54 2.3863
                      CHANNELS 6 Xposition Yposition Zposition Zrotation Xrotation Yrotation
                      JOINT lMid2_End
                      {
                        OFFSET 1.4042 -1.926 1.125
                        CHANNELS 6 Xposition Yposition Zposition Zrotation Xrotation Yrotation
                        End Site
                        {
                          OFFSET 0.014 -0.0193 0.0113
                        }
                      }
                    }
                  }
                }
                JOINT lCarpal2
                {
                  OFFSET 2.0956 0.66 -0.3894
                  CHANNELS 6 Xposition Yposition Zposition Zrotation Xrotation Yrotation
                  JOINT lRing1
                  {
                    OFFSET 5.0395 -0.09 2.4971
                    CHANNELS 6 Xposition Yposition Zposition Zrotation Xrotation Yrotation
                    JOINT lRing2
                    {
                      OFFSET 3.7921 -1.552 1.4806
                      CHANNELS 6 Xposition Yposition Zposition Zrotation Xrotation Yrotation
                      JOINT lRing2_End
                      {
                        OFFSET 1.4655 -1.808 0.9609
                        CHANNELS 6 Xposition Yposition Zposition Zrotation Xrotation Yrotation
                        End Site
                        {
                          OFFSET 0.0147 -0.0181 0.0096
                        }
                      }
                    }
                  }
                  JOINT lPinky1
                  {
                    OFFSET 4.9141 -1.269 0.3591
                    CHANNELS 6 Xposition Yposition Zposition Zrotation Xrotation Yrotation
                    JOINT lPinky2
                    {
                      OFFSET 3.1477 -1.685 0.8462
                      CHANNELS 6 Xposition Yposition Zposition Zrotation Xrotation Yrotation
                      JOINT lPinky2_End
                      {
                        OFFSET 0.8055 -1.585 0.7955
                        CHANNELS 6 Xposition Yposition Zposition Zrotation Xrotation Yrotation
                        End Site
                        {
                          OFFSET 0.0081 -0.0158 0.008
                        }
                      }
                    }
                  }
                }
              }
            }
          }
        }
        JOINT rCollar
        {
          OFFSET -1.7069 20.075 5.0056
          CHANNELS 6 Xposition Yposition Zposition Zrotation Xrotation Yrotation
          JOINT rShldr
          {
            OFFSET -13.6458 -0.047 -4.849
            CHANNELS 6 Xposition Yposition Zposition Zrotation Xrotation Yrotation
            JOINT rForeArm
            {
              OFFSET -28.3255 -0.9759 2.2888
              CHANNELS 6 Xposition Yposition Zposition Zrotation Xrotation Yrotation
              JOINT rHand
              {
                OFFSET -22.1583 -0.53 10.8316
                CHANNELS 6 Xposition Yposition Zposition Zrotation Xrotation Yrotation
                JOINT rThumb1
                {
                  OFFSET -0.786 0.112 2.5817
                  CHANNELS 6 Xposition Yposition Zposition Zrotation Xrotation Yrotation
                  JOINT rThumb2
                  {
                    OFFSET -0.3601 -0.878 4.2331
                    CHANNELS 6 Xposition Yposition Zposition Zrotation Xrotation Yrotation
                    JOINT rThumb2_End
                    {
                      OFFSET -1.8127 -1.216 2.2227
                      CHANNELS 6 Xposition Yposition Zposition Zrotation Xrotation Yrotation
                      End Site
                      {
                        OFFSET -0.0181 -0.0122 0.0222
                      }
                    }
                  }
                }
                JOINT rCarpal1
                {
                  OFFSET -0.9571 1.114 1.7695
                  CHANNELS 6 Xposition Yposition Zposition Zrotation Xrotation Yrotation
                  JOINT rIndex1
                  {
                    OFFSET -4.1246 0.487 4.1451
                    CHANNELS 6 Xposition Yposition Zposition Zrotation Xrotation Yrotation
                    JOINT rIndex2
                    {
                      OFFSET -3.4052 -1.454 2.7682
                      CHANNELS 6 Xposition Yposition Zposition Zrotation Xrotation Yrotation
                      JOINT rIndex2_End
                      {
                        OFFSET -1.4531 -1.795 1.2713
                        CHANNELS 6 Xposition Yposition Zposition Zrotation Xrotation Yrotation
                        End Site
                        {
                          OFFSET -0.0145 -0.018 0.0127
                        }
                      }
                    }
                  }
                  JOINT rMid1
                  {
                    OFFSET -5.6954 0.21 2.1184
                    CHANNELS 6 Xposition Yposition Zposition Zrotation Xrotation Yrotation
                    JOINT rMid2
                    {
                      OFFSET -3.9766 -1.54 2.3863
                      CHANNELS 6 Xposition Yposition Zposition Zrotation Xrotation Yrotation
                      JOINT rMid2_End
                      {
                        OFFSET -1.4042 -1.926 1.125
                        CHANNELS 6 Xposition Yposition Zposition Zrotation Xrotation Yrotation
                        End Site
                        {
                          OFFSET -0.014 -0.0193 0.0113
                        }
                      }
                    }
                  }
                }
                JOINT rCarpal2
                {
                  OFFSET -2.0956 0.66 -0.3894
                  CHANNELS 6 Xposition Yposition Zposition Zrotation Xrotation Yrotation
                  JOINT rRing1
                  {
                    OFFSET -5.0395 -0.09 2.4971
                    CHANNELS 6 Xposition Yposition Zposition Zrotation Xrotation Yrotation
                    JOINT rRing2
                    {
                      OFFSET -3.7921 -1.552 1.4806
                      CHANNELS 6 Xposition Yposition Zposition Zrotation Xrotation Yrotation
                      JOINT rRing2_End
                      {
                        OFFSET -1.4655 -1.808 0.9609
                        CHANNELS 6 Xposition Yposition Zposition Zrotation Xrotation Yrotation
                        End Site
                        {
                          OFFSET -0.0147 -0.0181 0.0096
                        }
                      }
                    }
                  }
                  JOINT rPinky1
                  {
                    OFFSET -4.9141 -1.269 0.3592
                    CHANNELS 6 Xposition Yposition Zposition Zrotation Xrotation Yrotation
                    JOINT rPinky2
                    {
                      OFFSET -3.1477 -1.685 0.8462
                      CHANNELS 6 Xposition Yposition Zposition Zrotation Xrotation Yrotation
                      JOINT rPinky2_End
                      {
                        OFFSET -0.8055 -1.585 0.7955
                        CHANNELS 6 Xposition Yposition Zposition Zrotation Xrotation Yrotation
                        End Site
                        {
                          OFFSET -0.0081 -0.0158 0.008
                        }
                      }
                    }
                  }
                }
              }
            }
          }
        }
      }
    }
  }
  JOINT lThigh
  {
    OFFSET 8.367 -8.2066 0.5982
    CHANNELS 6 Xposition Yposition Zposition Zrotation Xrotation Yrotation
    JOINT lShin
    {
      OFFSET 2.1923 -43.463 -0.4932
      CHANNELS 6 Xposition Yposition Zposition Zrotation Xrotation Yrotation
      JOINT lFoot
      {
        OFFSET 0.7333 -45.8593 -2.6451
        CHANNELS 6 Xposition Yposition Zposition Zrotation Xrotation Yrotation
        End Site
        {
          OFFSET 2.6618 -4.2699 12.3931
        }
      }
    }
  }
  JOINT rThigh
  {
    OFFSET -8.367 -8.2066 0.5982
    CHANNELS 6 Xposition Yposition Zposition Zrotation Xrotation Yrotation
    JOINT rShin
    {
      OFFSET -2.1923 -43.463 -0.4931
      CHANNELS 6 Xposition Yposition Zposition Zrotation Xrotation Yrotation
      JOINT rFoot
      {
        OFFSET -0.7333 -45.8593 -2.6451
        CHANNELS 6 Xposition Yposition Zposition Zrotation Xrotation Yrotation
        End Site
        {
          OFFSET -2.6618 -4.2699 12.3931
        }
      }
    }
  }
}
MOTION
Frames:	4
Frame Time:	0.0333333
0 90.174 2.4664 0 0 -0 0 -1.186 -1.5018 0 0 -0 0 9.964 0.2134 0 0 -0 0 13.134 -3.2573 0 0 -0 0 20.686 -1.6905 0 0 -0 0 7.238 -0.1237 0 0 -0 1.7069 20.075 5.0056 0 0 -0 13.6458 -0.047 -4.849 1.66051 0.0835086 5.75766 28.3255 -0.9759 2.2888 -0.0175111 0.895433 15.7816 22.1583 -0.53 10.8316 7.95139e-016 -1.98785e-016 -0 0.786 0.112 2.5817 5.46658e-016 -3.97569e-016 -0 0.3601 -0.878 4.2331 5.96354e-016 0 -0 1.8127 -1.216 2.2227 3.97569e-016 1.98785e-016 9.54166e-015 0.9571 1.114 1.7695 1.49089e-016 -3.97569e-016 -0 4.1246 0.487 4.1451 6.4605e-016 0 3.18055e-015 3.4052 -1.454 2.7682 5.96354e-016 0 3.18055e-015 1.4531 -1.795 1.2713 8.94531e-016 -1.98785e-016 6.36111e-015 5.6954 0.21 2.1184 6.4605e-016 0 3.18055e-015 3.9766 -1.54 2.3863 5.96354e-016 0 3.18055e-015 1.4042 -1.926 1.125 8.94531e-016 -1.98785e-016 6.36111e-015 2.0956 0.66 -0.3894 1.49089e-016 -3.97569e-016 -0 5.0395 -0.09 2.4971 6.4605e-016 0 3.18055e-015 3.7921 -1.552 1.4806 5.96354e-016 0 3.18055e-015 1.4655 -1.808 0.9609 8.94531e-016 -1.98785e-016 6.36111e-015 4.9141 -1.269 0.3591 6.4605e-016 0 3.18055e-015 3.1477 -1.685 0.8462 5.96354e-016 0 3.18055e-015 0.8055 -1.585 0.7955 8.94531e-016 -1.98785e-016 6.36111e-015 -1.7069 20.075 5.0056 0 0 -0 -13.6458 -0.047 -4.849 -1.4496 0.0636048 -5.0245 -28.3255 -0.9759 2.2888 -1.74811 1.20616 -16.8394 -22.1583 -0.53 10.8316 -1.19271e-015 1.98785e-016 -3.18055e-015 -0.786 0.112 2.5817 -3.97569e-016 1.98785e-016 -3.18055e-015 -0.3601 -0.878 4.2331 -2.98177e-016 1.98785e-016 -3.18055e-015 -1.8127 -1.216 2.2227 -2.98177e-016 3.97569e-016 -0 -0.9571 1.114 1.7695 4.96962e-016 0 -6.36111e-015 -4.1246 0.487 4.1451 -9.93923e-017 3.97569e-016 -0 -3.4052 -1.454 2.7682 -8.94531e-016 5.96354e-016 -0 -1.4531 -1.795 1.2713 -3.97569e-016 3.97569e-016 -0 -5.6954 0.21 2.1184 -9.93923e-017 3.97569e-016 -0 -3.9766 -1.54 2.3863 -8.94531e-016 5.96354e-016 -0 -1.4042 -1.926 1.125 -3.97569e-016 3.97569e-016 -0 -2.0956 0.66 -0.3894 4.96962e-016 0 -6.36111e-015 -5.0395 -0.09 2.4971 -9.93923e-017 3.97569e-016 -0 -3.7921 -1.552 1.4806 -8.94531e-016 5.96354e-016 -0 -1.4655 -1.808 0.9609 -3.97569e-016 3.97569e-016 -0 -4.9141 -1.269 0.3592 -9.93923e-017 3.97569e-016 -0 -3.1477 -1.685 0.8462 -8.94531e-016 5.96354e-016 -0 -0.8055 -1.585 0.7955 -3.97569e-016 3.97569e-016 -0 8.367 -8.2066 0.5982 -4.66115 -1.03232 0.120763 2.1923 -43.463 -0.4932 0.00990601 1.55097 0.177175 0.7333 -45.8593 -2.6451 4.65196 -0.54114 -0.255042 -8.367 -8.2066 0.5982 4.66115 -1.03222 -0.120763 -2.1923 -43.463 -0.4931 -0.00990459 1.5509 -0.177176 -0.7333 -45.8593 -2.6451 -4.65196 -0.541171 0.255041 
5.3871 51.0513 23.0904 -46.6897 -34.4637 118.082 0 -1.186 -1.5018 -0.442355 2.80925 -0.291551 0 9.964 0.2134 -0.871903 5.62064 -0.562371 0 13.134 -3.2573 -0.87191 5.62062 -0.562341 0 20.686 -1.6905 0.000172223 -0.211126 -6.13515e-006 3.55271e-015 7.238 -0.1237 3.40021e-006 -13.453 -2.8858e-006 1.7069 20.075 5.0056 -1.4896 2.5688 18.2914 13.6458 -0.047 -4.849 12.9752 -21.8012 -35.8257 28.3255 -0.9759 2.2888 -27.7904 -67.2826 -82.8179 22.1583 -0.53 10.8316 26.0568 18.1047 -0.463882 0.786 0.112 2.5817 -1.95679e-006 9.43108e-007 2.46641e-006 0.3601 -0.878 4.2331 -3.17939e-006 2.04542e-007 -2.79014e-006 1.8127 -1.216 2.2227 -1.85575e-006 1.24592e-007 1.34944e-007 0.9571 1.114 1.7695 -3.18055e-015 0 -0 4.1246 0.487 4.1451 -1.95679e-006 9.43108e-007 2.46641e-006 3.4052 -1.454 2.7682 -3.17939e-006 2.04542e-007 -2.79014e-006 1.4531 -1.795 1.2713 -1.85575e-006 1.24592e-007 1.34944e-007 5.6954 0.21 2.1184 -1.95679e-006 9.43108e-007 2.46641e-006 3.9766 -1.54 2.3863 -3.17939e-006 2.04542e-007 -2.79014e-006 1.4042 -1.926 1.125 -1.85575e-006 1.24592e-007 1.34944e-007 2.0956 0.66 -0.3894 -3.18055e-015 0 -0 5.0395 -0.09 2.4971 -1.95679e-006 9.43108e-007 2.46641e-006 3.7921 -1.552 1.4806 -3.17939e-006 2.04542e-007 -2.79014e-006 1.4655 -1.808 0.9609 -1.85575e-006 1.24592e-007 1.34944e-007 4.9141 -1.269 0.3591 -1.95679e-006 9.43108e-007 2.46641e-006 3.1477 -1.685 0.8462 -3.17939e-006 2.04542e-007 -2.79014e-006 0.8055 -1.585 0.7955 -1.85575e-006 1.24592e-007 1.34944e-007 -1.7069 20.075 5.0056 7.00955 0.220285 -17.0582 -13.6458 -0.047 -4.849 -10.0555 -17.1721 35.766 -28.3255 -0.9759 2.2888 13.9711 -14.6887 88.3974 -22.1583 -0.53 10.8316 -26.2622 17.9123 1.02614 -0.786 0.112 2.5817 -1.89178e-006 -9.70198e-007 -6.26146e-006 -0.3601 -0.878 4.2331 -2.64834e-031 4.77083e-015 3.18055e-015 -1.8127 -1.216 2.2227 2.4255e-007 -4.72944e-007 -2.98831e-006 -0.9571 1.114 1.7695 1.59028e-015 -1.59028e-015 6.36111e-015 -4.1246 0.487 4.1451 -1.89178e-006 -9.70198e-007 -6.26146e-006 -3.4052 -1.454 2.7682 -1.59028e-015 1.59028e-015 3.18055e-015 -1.4531 -1.795 1.2713 2.4255e-007 -4.72944e-007 -2.98831e-006 -5.6954 0.21 2.1184 -1.89178e-006 -9.70198e-007 -6.26146e-006 -3.9766 -1.54 2.3863 -1.59028e-015 1.59028e-015 3.18055e-015 -1.4042 -1.926 1.125 2.4255e-007 -4.72944e-007 -2.98831e-006 -2.0956 0.66 -0.3894 1.59028e-015 -1.59028e-015 6.36111e-015 -5.0395 -0.09 2.4971 -1.89178e-006 -9.70198e-007 -6.26146e-006 -3.7921 -1.552 1.4806 -1.59028e-015 1.59028e-015 3.18055e-015 -1.4655 -1.808 0.9609 2.4255e-007 -4.72944e-007 -2.98831e-006 -4.9141 -1.269 0.3592 -1.89178e-006 -9.70198e-007 -6.26146e-006 -3.1477 -1.685 0.8462 -1.59028e-015 1.59028e-015 3.18055e-015 -0.8055 -1.585 0.7955 2.4255e-007 -4.72944e-007 -2.98831e-006 8.367 -8.2066 0.5982 33.239 -68.7361 49.514 2.1923 -43.463 -0.4932 9.43914 77.9911 -8.54329 0.7333 -45.8593 -2.6451 12.4083 43.2074 -4.99703 -8.367 -8.2066 0.5982 -33.4417 -68.7697 -49.8283 -2.1923 -43.463 -0.4931 -9.64172 78.0556 8.78477 -0.7333 -45.8593 -2.6451 -12.5674 43.6215 5.07996 
-1.8886 32.4418 32.8228 54.1764 -73.7146 -124.71 0 -1.186 -1.5018 -0.614363 4.08492 -0.458142 0 9.964 0.2134 -1.20045 8.17475 -0.875518 1.77636e-015 13.134 -3.2573 -1.20045 8.17471 -0.875526 0 20.686 -1.6905 -0.000220413 -0.421127 -1.82814e-005 0 7.238 -0.1237 1.02707e-006 -18.9216 1.61645e-006 1.7069 20.075 5.0056 -2.78892 3.50621 26.6646 13.6458 -0.047 -4.849 9.25194 -21.9316 -56.6782 28.3255 -0.9759 2.2888 -42.8765 -37.0667 -120.967 22.1583 -0.53 10.8316 37.6902 26.6064 -0.868589 0.786 0.112 2.5817 -1.96307e-006 2.57025e-006 9.92147e-007 0.3601 -0.878 4.2331 -9.81535e-007 1.28513e-006 4.96073e-007 1.8127 -1.216 2.2227 3.18055e-015 7.15625e-015 -0 0.9571 1.114 1.7695 5.56597e-015 1.23246e-014 -0 4.1246 0.487 4.1451 -1.96307e-006 2.57025e-006 9.92147e-007 3.4052 -1.454 2.7682 -9.81535e-007 1.28513e-006 4.96073e-007 1.4531 -1.795 1.2713 -3.08973e-031 5.56597e-015 3.18055e-015 5.6954 0.21 2.1184 -1.96307e-006 2.57025e-006 9.92147e-007 3.9766 -1.54 2.3863 -9.81535e-007 1.28513e-006 4.96073e-007 1.4042 -1.926 1.125 -3.08973e-031 5.56597e-015 3.18055e-015 2.0956 0.66 -0.3894 5.56597e-015 1.23246e-014 -0 5.0395 -0.09 2.4971 -1.96307e-006 2.57025e-006 9.92147e-007 3.7921 -1.552 1.4806 -9.81535e-007 1.28513e-006 4.96073e-007 1.4655 -1.808 0.9609 -3.08973e-031 5.56597e-015 3.18055e-015 4.9141 -1.269 0.3591 -1.96307e-006 2.57025e-006 9.92147e-007 3.1477 -1.685 0.8462 -9.81535e-007 1.28513e-006 4.96073e-007 0.8055 -1.585 0.7955 -3.08973e-031 5.56597e-015 3.18055e-015 -1.7069 20.075 5.0056 10.3012 0.317376 -24.8526 -13.6458 -0.047 -4.849 -7.16121 -17.4261 55.4661 -28.3255 -0.9759 2.2888 51.4711 -51.1803 130.31 -22.1583 -0.53 10.8316 -38.0661 26.3224 1.72401 -0.786 0.112 2.5817 7.95139e-016 -7.19041e-015 1.98785e-016 -0.3601 -0.878 4.2331 9.38896e-007 1.14761e-006 4.71267e-006 -1.8127 -1.216 2.2227 5.69303e-032 -5.46968e-015 5.96354e-016 -0.9571 1.114 1.7695 4.99582e-032 -7.19973e-015 3.97569e-016 -4.1246 0.487 4.1451 1.59028e-015 -1.59869e-013 6.85807e-015 -3.4052 -1.454 2.7682 9.38896e-007 1.14761e-006 4.71267e-006 -1.4531 -1.795 1.2713 4.76575e-032 -5.49453e-015 4.96962e-016 -5.6954 0.21 2.1184 1.59028e-015 -1.59869e-013 6.85807e-015 -3.9766 -1.54 2.3863 9.38896e-007 1.14761e-006 4.71267e-006 -1.4042 -1.926 1.125 4.76575e-032 -5.49453e-015 4.96962e-016 -2.0956 0.66 -0.3894 4.99582e-032 -7.19973e-015 3.97569e-016 -5.0395 -0.09 2.4971 1.59028e-015 -1.59869e-013 6.85807e-015 -3.7921 -1.552 1.4806 9.38896e-007 1.14761e-006 4.71267e-006 -1.4655 -1.808 0.9609 4.76575e-032 -5.49453e-015 4.96962e-016 -4.9141 -1.269 0.3592 1.59028e-015 -1.59869e-013 6.85807e-015 -3.1477 -1.685 0.8462 9.38896e-007 1.14761e-006 4.71267e-006 -0.8055 -1.585 0.7955 4.76575e-032 -5.49453e-015 4.96962e-016 8.367 -8.2066 0.5982 116.686 -61.313 132.585 2.1923 -43.463 -0.4932 167.638 66.9518 -163.906 0.7333 -45.8593 -2.6451 20.7059 63.3341 -10.6146 -8.367 -8.2066 0.5982 -116.696 -61.1546 -132.719 -2.1923 -43.463 -0.4931 -167.484 66.8299 163.786 -0.7333 -45.8593 -2.6451 -21.1815 63.9304 10.9723 
8.04233e-005 36.6041 29.7433 -0.0268159 -74.9991 179.979 -4.33681e-019 -1.186 -1.5018 -0.585143 3.83152 -0.426449 -5.55112e-017 9.964 0.2134 -1.14548 7.66714 -0.816309 0 13.134 -3.2573 -1.14548 7.66714 -0.816309 -1.11022e-016 20.686 -1.6905 -3.37722e-005 -0.631514 2.47679e-006 3.33067e-016 7.238 -0.1237 2.39034e-007 -16.4051 8.12117e-008 1.7069 20.075 5.0056 -2.71253 3.3077 25.0598 13.6458 -0.047 -4.849 10.1834 -22.5125 -52.4351 28.3255 -0.9759 2.2888 -44.2432 -44.5538 -118.108 22.1583 -0.53 10.8316 35.2609 24.6884 -0.887288 0.786 0.112 2.5817 1.81207e-006 -1.41763e-006 4.01996e-006 0.3601 -0.878 4.2331 7.95139e-016 2.03754e-015 -1.59028e-015 1.8127 -1.216 2.2227 4.59628e-007 -9.86978e-007 -4.73482e-006 0.9571 1.114 1.7695 2.38542e-015 2.48481e-015 -0 4.1246 0.487 4.1451 1.81207e-006 -1.41763e-006 4.01996e-006 3.4052 -1.454 2.7682 0 5.01931e-015 -0 1.4531 -1.795 1.2713 4.59628e-007 -9.86978e-007 -4.73482e-006 5.6954 0.21 2.1184 1.81207e-006 -1.41763e-006 4.01996e-006 3.9766 -1.54 2.3863 0 5.01931e-015 -0 1.4042 -1.926 1.125 4.59628e-007 -9.86978e-007 -4.73482e-006 2.0956 0.66 -0.3894 2.38542e-015 2.48481e-015 -0 5.0395 -0.09 2.4971 1.81207e-006 -1.41763e-006 4.01996e-006 3.7921 -1.552 1.4806 0 5.01931e-015 -0 1.4655 -1.808 0.9609 4.59628e-007 -9.86978e-007 -4.73482e-006 4.9141 -1.269 0.3591 1.81207e-006 -1.41763e-006 4.01996e-006 3.1477 -1.685 0.8462 0 5.01931e-015 -0 0.8055 -1.585 0.7955 4.59628e-007 -9.86978e-007 -4.73482e-006 -1.7069 20.075 5.0056 9.77889 0.328352 -23.3829 -13.6458 -0.047 -4.849 -7.90047 -17.8205 51.4121 -28.3255 -0.9759 2.2888 38.3481 -43.2337 118.449 -22.1583 -0.53 10.8316 -35.6119 24.423 1.6968 -0.786 0.112 2.5817 -1.36045e-006 3.79933e-007 -4.37227e-006 -0.3601 -0.878 4.2331 3.97569e-016 3.75206e-015 3.97569e-016 -1.8127 -1.216 2.2227 1.36045e-006 -3.79933e-007 4.37227e-006 -0.9571 1.114 1.7695 -2.39661e-032 3.45388e-015 3.97569e-016 -4.1246 0.487 4.1451 -1.36045e-006 3.79933e-007 -4.37227e-006 -3.4052 -1.454 2.7682 3.97569e-016 4.47266e-016 3.97569e-016 -1.4531 -1.795 1.2713 1.36045e-006 -3.79933e-007 4.37227e-006 -5.6954 0.21 2.1184 -1.36045e-006 3.79933e-007 -4.37227e-006 -3.9766 -1.54 2.3863 3.97569e-016 4.47266e-016 3.97569e-016 -1.4042 -1.926 1.125 1.36045e-006 -3.79933e-007 4.37227e-006 -2.0956 0.66 -0.3894 -2.39661e-032 3.45388e-015 3.97569e-016 -5.0395 -0.09 2.4971 -1.36045e-006 3.79933e-007 -4.37227e-006 -3.7921 -1.552 1.4806 3.97569e-016 4.47266e-016 3.97569e-016 -1.4655 -1.808 0.9609 1.36045e-006 -3.79933e-007 4.37227e-006 -4.9141 -1.269 0.3592 -1.36045e-006 3.79933e-007 -4.37227e-006 -3.1477 -1.685 0.8462 3.97569e-016 4.47266e-016 3.97569e-016 -0.8055 -1.585 0.7955 1.36045e-006 -3.79933e-007 4.37227e-006 8.367 -8.2066 0.5982 104.711 -66.5443 120.873 2.1923 -43.463 -0.4932 164.199 74.5299 -161.344 0.7333 -45.8593 -2.6451 18.2762 58.7846 -8.84395 -8.367 -8.2066 0.5982 -104.81 -66.4116 -121.097 -2.1923 -43.463 -0.4931 -164.038 74.4157 161.22 -0.7333 -45.8593 -2.6451 -18.632 59.3416 9.09087 
